<svg t="1576546884455" class="icon" viewBox="0 0 1024 1024" version="1.1" xmlns="http://www.w3.org/2000/svg" p-id="2837" width="240" height="240"><path d="M921.581937 108.378903H102.418063C45.880402 108.378903 0 156.246252 0 215.132122v593.735756c0 59.066502 45.880402 106.753219 102.418063 106.753219h819.163874c56.537661 0 102.418063-47.867349 102.418063-106.753219V215.132122c0-58.885871-45.880402-106.753219-102.418063-106.753219z m30.165461 689.289822c0 23.662727-18.424413 42.629035-41.003351 42.629035H113.255953c-22.578938 0-41.003352-19.146939-41.003351-42.629035V226.511907c0-23.662727 18.424413-42.629035 41.003351-42.629035h797.668725c22.578938 0 41.003352 19.146939 41.003352 42.629035v571.156818z" fill="#323333" p-id="2838"></path><path d="M748.536955 267.334627c-77.852179 0-140.892574 63.040395-140.892573 140.892574s63.040395 140.892574 140.892573 140.892573 140.892574-63.040395 140.892574-140.892573-63.221027-140.892574-140.892574-140.892574z m0 209.351914c-37.751984 0-68.639972-30.707356-68.639971-68.639972 0-37.751984 30.707356-68.639972 68.639971-68.639972s68.639972 30.707356 68.639972 68.639972c-0.180632 37.932616-30.887987 68.639972-68.639972 68.639972zM170.877403 548.939143h353.134592c19.869466 0 36.126301-16.256835 36.126301-36.126301s-16.256835-36.126301-36.126301-36.126301H170.877403c-19.869466 0-36.126301 16.256835-36.126301 36.126301s16.256835 36.126301 36.126301 36.126301zM853.122597 669.962251H174.851297c-19.869466 0-36.126301 16.256835-36.126301 36.126301s16.256835 36.126301 36.126301 36.126301h678.2713c19.869466 0 36.126301-16.256835 36.126301-36.126301s-16.076204-36.126301-36.126301-36.126301z" fill="#323333" p-id="2839"></path></svg>
